<mxfile host="65bd71144e">
    <diagram id="fwAJ3eMCGppvGx-USPKv" name="Page-1">
        <mxGraphModel dx="1186" dy="671" grid="1" gridSize="10" guides="1" tooltips="1" connect="1" arrows="1" fold="1" page="1" pageScale="1" pageWidth="1100" pageHeight="850" math="0" shadow="0">
            <root>
                <mxCell id="0"/>
                <mxCell id="1" parent="0"/>
                <mxCell id="4" value="&lt;font style=&quot;font-size: 12px;&quot;&gt;set&lt;b&gt;Accepted&lt;/b&gt;&lt;/font&gt;" style="edgeStyle=none;html=1;strokeColor=#E6E6E6;" parent="1" source="2" target="3" edge="1">
                    <mxGeometry relative="1" as="geometry"/>
                </mxCell>
                <mxCell id="8" value="&lt;font color=&quot;#cc0000&quot; style=&quot;font-size: 14px;&quot;&gt;&lt;b style=&quot;&quot;&gt;CancelRequest&lt;/b&gt;&lt;/font&gt;" style="edgeStyle=none;html=1;strokeColor=#E6E6E6;" parent="1" source="2" target="7" edge="1">
                    <mxGeometry relative="1" as="geometry"/>
                </mxCell>
                <mxCell id="20" value="&lt;font style=&quot;font-size: 12px;&quot;&gt;set&lt;b&gt;Rejected&lt;/b&gt;&lt;/font&gt;" style="edgeStyle=none;html=1;exitX=0;exitY=0.5;exitDx=0;exitDy=0;entryX=0.75;entryY=0;entryDx=0;entryDy=0;strokeColor=#E6E6E6;" parent="1" source="2" target="18" edge="1">
                    <mxGeometry relative="1" as="geometry"/>
                </mxCell>
                <mxCell id="2" value="&lt;font style=&quot;font-size: 14px;&quot;&gt;Pending&lt;/font&gt;" style="rounded=1;whiteSpace=wrap;html=1;fillColor=#0066CC;strokeColor=#0066CC;" parent="1" vertex="1">
                    <mxGeometry x="310" y="240" width="120" height="60" as="geometry"/>
                </mxCell>
                <mxCell id="6" value="set&lt;b&gt;Succeeded&lt;/b&gt;" style="edgeStyle=none;html=1;strokeColor=#E6E6E6;" parent="1" source="3" target="5" edge="1">
                    <mxGeometry relative="1" as="geometry"/>
                </mxCell>
                <mxCell id="23" value="&lt;b style=&quot;color: rgb(204, 0, 0);&quot;&gt;&lt;font style=&quot;font-size: 14px;&quot;&gt;CancelRequest&lt;/font&gt;&lt;/b&gt;" style="edgeStyle=none;html=1;exitX=0.5;exitY=1;exitDx=0;exitDy=0;entryX=0.5;entryY=0;entryDx=0;entryDy=0;strokeColor=#E6E6E6;" parent="1" source="3" target="9" edge="1">
                    <mxGeometry relative="1" as="geometry"/>
                </mxCell>
                <mxCell id="24" value="&lt;span style=&quot;font-size: 12px;&quot;&gt;set&lt;/span&gt;&lt;b style=&quot;font-size: 12px;&quot;&gt;Aborted&lt;/b&gt;" style="edgeStyle=none;html=1;exitX=1;exitY=1;exitDx=0;exitDy=0;entryX=0.25;entryY=0;entryDx=0;entryDy=0;strokeColor=#E6E6E6;" parent="1" source="3" target="11" edge="1">
                    <mxGeometry x="-0.4632" y="2" relative="1" as="geometry">
                        <mxPoint as="offset"/>
                    </mxGeometry>
                </mxCell>
                <mxCell id="3" value="&lt;font style=&quot;font-size: 14px;&quot;&gt;Active&lt;/font&gt;" style="whiteSpace=wrap;html=1;rounded=1;fillColor=#0066CC;strokeColor=#0066CC;" parent="1" vertex="1">
                    <mxGeometry x="605" y="240" width="120" height="60" as="geometry"/>
                </mxCell>
                <mxCell id="5" value="&lt;font style=&quot;font-size: 14px;&quot;&gt;&lt;b&gt;Succeeded&lt;/b&gt;&lt;/font&gt;" style="whiteSpace=wrap;html=1;rounded=1;arcSize=41;fillColor=#336600;strokeColor=#336600;" parent="1" vertex="1">
                    <mxGeometry x="900" y="240" width="120" height="60" as="geometry"/>
                </mxCell>
                <mxCell id="10" value="&lt;span style=&quot;font-size: 12px;&quot;&gt;set&lt;/span&gt;&lt;b style=&quot;font-size: 12px;&quot;&gt;Accepted&lt;/b&gt;" style="edgeStyle=none;html=1;strokeColor=#E6E6E6;" parent="1" source="7" target="9" edge="1">
                    <mxGeometry relative="1" as="geometry"/>
                </mxCell>
                <mxCell id="17" value="&lt;font style=&quot;font-size: 12px;&quot;&gt;set&lt;b&gt;Canceled&lt;/b&gt;&lt;/font&gt;" style="edgeStyle=none;html=1;exitX=0.5;exitY=1;exitDx=0;exitDy=0;entryX=0.5;entryY=0;entryDx=0;entryDy=0;strokeColor=#E6E6E6;" parent="1" source="7" target="16" edge="1">
                    <mxGeometry relative="1" as="geometry"/>
                </mxCell>
                <mxCell id="22" value="&lt;span style=&quot;font-size: 12px;&quot;&gt;set&lt;/span&gt;&lt;b style=&quot;font-size: 12px;&quot;&gt;Rejected&lt;/b&gt;" style="edgeStyle=none;html=1;exitX=0;exitY=0.5;exitDx=0;exitDy=0;entryX=0.75;entryY=1;entryDx=0;entryDy=0;strokeColor=#E6E6E6;" parent="1" source="7" target="18" edge="1">
                    <mxGeometry relative="1" as="geometry"/>
                </mxCell>
                <mxCell id="7" value="&lt;font style=&quot;font-size: 14px;&quot;&gt;Recalling&lt;/font&gt;" style="whiteSpace=wrap;html=1;rounded=1;fillColor=#0066CC;strokeColor=#0066CC;" parent="1" vertex="1">
                    <mxGeometry x="310" y="380" width="120" height="60" as="geometry"/>
                </mxCell>
                <mxCell id="12" value="&lt;span style=&quot;font-size: 12px;&quot;&gt;set&lt;/span&gt;&lt;b style=&quot;font-size: 12px;&quot;&gt;Aborted&lt;/b&gt;" style="edgeStyle=none;html=1;exitX=1;exitY=0.5;exitDx=0;exitDy=0;entryX=0;entryY=0.5;entryDx=0;entryDy=0;strokeColor=#E6E6E6;" parent="1" source="9" target="11" edge="1">
                    <mxGeometry relative="1" as="geometry"/>
                </mxCell>
                <mxCell id="15" value="&lt;span style=&quot;font-size: 12px;&quot;&gt;set&lt;/span&gt;&lt;b style=&quot;font-size: 12px;&quot;&gt;Canceled&lt;/b&gt;" style="edgeStyle=none;html=1;exitX=0.5;exitY=1;exitDx=0;exitDy=0;entryX=0.5;entryY=0;entryDx=0;entryDy=0;strokeColor=#E6E6E6;" parent="1" source="9" target="13" edge="1">
                    <mxGeometry relative="1" as="geometry"/>
                </mxCell>
                <mxCell id="25" value="set&lt;b&gt;Succeeded&lt;br&gt;&lt;/b&gt;" style="edgeStyle=none;html=1;exitX=1;exitY=0;exitDx=0;exitDy=0;entryX=0.25;entryY=1;entryDx=0;entryDy=0;strokeColor=#E6E6E6;" parent="1" source="9" target="5" edge="1">
                    <mxGeometry x="-0.4363" y="-3" relative="1" as="geometry">
                        <mxPoint as="offset"/>
                    </mxGeometry>
                </mxCell>
                <mxCell id="9" value="&lt;font style=&quot;font-size: 14px;&quot;&gt;Preeempting&lt;/font&gt;" style="whiteSpace=wrap;html=1;rounded=1;fillColor=#0066CC;strokeColor=#0066CC;" parent="1" vertex="1">
                    <mxGeometry x="605" y="380" width="120" height="60" as="geometry"/>
                </mxCell>
                <mxCell id="11" value="&lt;font style=&quot;font-size: 14px;&quot;&gt;&lt;b&gt;Aborted&lt;/b&gt;&lt;/font&gt;" style="whiteSpace=wrap;html=1;rounded=1;arcSize=41;fillColor=#660000;strokeColor=#660000;" parent="1" vertex="1">
                    <mxGeometry x="910" y="380" width="120" height="60" as="geometry"/>
                </mxCell>
                <mxCell id="13" value="&lt;font color=&quot;#f2f2f2&quot; style=&quot;font-size: 14px;&quot;&gt;&lt;b style=&quot;&quot;&gt;Preempted&lt;/b&gt;&lt;/font&gt;" style="whiteSpace=wrap;html=1;rounded=1;arcSize=41;fillColor=#CC6600;strokeColor=#FFFF00;" parent="1" vertex="1">
                    <mxGeometry x="605" y="530" width="120" height="60" as="geometry"/>
                </mxCell>
                <mxCell id="16" value="&lt;b&gt;&lt;font style=&quot;font-size: 14px;&quot;&gt;Recalled&lt;/font&gt;&lt;/b&gt;" style="whiteSpace=wrap;html=1;rounded=1;arcSize=41;fillColor=#CC6600;strokeColor=#CC6600;" parent="1" vertex="1">
                    <mxGeometry x="310" y="530" width="120" height="60" as="geometry"/>
                </mxCell>
                <mxCell id="18" value="&lt;font style=&quot;font-size: 14px;&quot;&gt;&lt;b&gt;Rejected&lt;/b&gt;&lt;/font&gt;" style="whiteSpace=wrap;html=1;rounded=1;arcSize=41;fillColor=#660000;strokeColor=#660000;" parent="1" vertex="1">
                    <mxGeometry x="70" y="310" width="120" height="60" as="geometry"/>
                </mxCell>
                <mxCell id="29" value="&lt;font color=&quot;#99ccff&quot; style=&quot;font-size: 14px;&quot;&gt;Receive Goal&lt;/font&gt;" style="endArrow=classic;html=1;strokeColor=#E6E6E6;fontSize=14;fontColor=#331A00;entryX=0.5;entryY=0;entryDx=0;entryDy=0;" parent="1" target="2" edge="1">
                    <mxGeometry width="50" height="50" relative="1" as="geometry">
                        <mxPoint x="370" y="140" as="sourcePoint"/>
                        <mxPoint x="370" y="100" as="targetPoint"/>
                        <mxPoint as="offset"/>
                    </mxGeometry>
                </mxCell>
                <mxCell id="30" value="&lt;font style=&quot;font-size: 24px;&quot;&gt;&lt;font color=&quot;#3399ff&quot; style=&quot;&quot;&gt;&lt;b style=&quot;&quot;&gt;Server&lt;/b&gt; &lt;/font&gt;&lt;font color=&quot;#e6e6e6&quot; style=&quot;&quot;&gt;State Transitions&lt;/font&gt;&lt;/font&gt;" style="text;html=1;align=center;verticalAlign=middle;resizable=0;points=[];autosize=1;strokeColor=none;fillColor=none;fontSize=14;fontColor=#CC0000;" vertex="1" parent="1">
                    <mxGeometry x="50" y="90" width="280" height="40" as="geometry"/>
                </mxCell>
                <mxCell id="32" value="&lt;font color=&quot;#66b2ff&quot; style=&quot;font-size: 36px;&quot;&gt;&lt;b&gt;Actionlib&lt;/b&gt;&lt;/font&gt;" style="text;html=1;strokeColor=none;fillColor=none;align=center;verticalAlign=middle;whiteSpace=wrap;rounded=0;fontSize=12;fontColor=#3399FF;" vertex="1" parent="1">
                    <mxGeometry x="50" y="60" width="180" height="30" as="geometry"/>
                </mxCell>
            </root>
        </mxGraphModel>
    </diagram>
</mxfile>